<svg width="55" height="50" viewBox="0 0 55 50" fill="none" xmlns="http://www.w3.org/2000/svg">
<path d="M9.16667 23.611L0 18.75L27.5 4.16663L55 18.75V36.4583H50.4167V21.1806L45.8333 23.611V37.5235L45.3232 38.0966C41.1256 42.8123 34.7 45.8333 27.5 45.8333C20.3 45.8333 13.8744 42.8123 9.67686 38.0966L9.16667 37.5235V23.611ZM13.75 26.0416V36.0243C17.1124 39.4875 22.0255 41.6666 27.5 41.6666C32.9746 41.6666 37.8877 39.4875 41.25 36.0243V26.0416L27.5 33.3333L13.75 26.0416ZM9.09624 18.75L27.5 28.5095L45.9037 18.75L27.5 8.9904L9.09624 18.75Z" fill="white"/>
</svg>
