<svg width="51" height="51" viewBox="0 0 51 51" fill="none" xmlns="http://www.w3.org/2000/svg">
<path d="M42.5 8.5C43.6272 8.5 44.7082 8.94777 45.5052 9.7448C46.3022 10.5418 46.75 11.6228 46.75 12.75V34C46.75 36.3587 44.8587 38.25 42.5 38.25H51V42.5H0V38.25H8.5C7.37283 38.25 6.29183 37.8022 5.4948 37.0052C4.69777 36.2082 4.25 35.1272 4.25 34V12.75C4.25 10.3913 6.14125 8.5 8.5 8.5H42.5ZM42.5 12.75H8.5V34H42.5V12.75ZM25.5 25.5C30.1963 25.5 34 27.4125 34 29.75V31.875H17V29.75C17 27.4125 20.8037 25.5 25.5 25.5ZM25.5 14.875C26.6272 14.875 27.7082 15.3228 28.5052 16.1198C29.3022 16.9168 29.75 17.9978 29.75 19.125C29.75 20.2522 29.3022 21.3332 28.5052 22.1302C27.7082 22.9272 26.6272 23.375 25.5 23.375C23.1413 23.375 21.25 21.4838 21.25 19.125C21.25 16.7662 23.1625 14.875 25.5 14.875Z" fill="white"/>
</svg>
