<svg width="48" height="40" viewBox="0 0 48 40" fill="none" xmlns="http://www.w3.org/2000/svg">
<path d="M5 0C3.6193 0 2.5 0.89544 2.5 2V6H7.5V10H0V14H7.5V18H0V22H7.5V26H0V30H7.5V34H2.5V38C2.5 39.1046 3.6193 40 5 40H45C46.3807 40 47.5 39.1046 47.5 38V2C47.5 0.89544 46.3807 0 45 0H5ZM17.5 28C17.5 24.6862 20.8577 22 25 22C29.1423 22 32.5 24.6862 32.5 28H17.5ZM25 20C22.2385 20 20 18.2092 20 16C20 13.7909 22.2385 12 25 12C27.7615 12 30 13.7909 30 16C30 18.2092 27.7615 20 25 20Z" fill="white"/>
</svg>
